# xmcd CD database file
#
# Track frame offsets:
#	150
#	10264
#	18221
#	30448
#	41618
#	54492
#	65495
#	78570
#	89533
#	100249
#	111468
#	118225
#	129498
#	140974
#	151232
#	160797
#
# Disc length: 2295 seconds
#
# Revision: 0
# Processed by: cddbd v1.5.1PL0 Copyright (c) Steve Scherf et al.
# Submitted via: CDex 1.51
#
DISCID=d508f510
DTITLE=Various Artist - Country Disc 2
DYEAR=2001
DGENRE=Country
TTITLE0=Dolly Parton-Release me
TTITLE1=Jerry Lee Lewis-Your cheatin' heart
TTITLE2=Frankie Laine-High noon
TTITLE3=Johnny Paycheck-Tender years
TTITLE4=Lynn Anderson-Rose Garden
TTITLE5=Carl Smith-Hey Joe !
TTITLE6=Kenny Rogers-Ruby don't take your love to town
TTITLE7=Dave Duddley-Cowboy Boots
TTITLE8=Carl Belew-Am I that easy to forget
TTITLE9=Roy Drusky-The last letter
TTITLE10=Waylon Jennings-It's so easy
TTITLE11=Donna Fargo-Wishful Thinking
TTITLE12=Freddy Fender-Before the next teardrop falls
TTITLE13=Ferlin Husky-Wings of a dove
TTITLE14=Merle Davis-Sixteen tons
TTITLE15=Patsy Cline-I've loved and lost again
EXTD=YEAR: 2001
EXTT0=
EXTT1=
EXTT2=
EXTT3=
EXTT4=
EXTT5=
EXTT6=
EXTT7=
EXTT8=
EXTT9=
EXTT10=
EXTT11=
EXTT12=
EXTT13=
EXTT14=
EXTT15=
PLAYORDER=
